<svg xmlns="http://www.w3.org/2000/svg" xmlns:xlink="http://www.w3.org/1999/xlink" width="440" height="440" viewBox="0 0 440 440">
  <defs>
    <radialGradient id="radial-gradient" cx="0.5" cy="0.5" r="0.5" gradientUnits="objectBoundingBox">
      <stop offset="0" stop-color="#c5125a"/>
      <stop offset="0.749" stop-color="#e3194e" stop-opacity="0"/>
      <stop offset="1" stop-color="#ff2156" stop-opacity="0"/>
    </radialGradient>
  </defs>
  <g id="Group_210" data-name="Group 210" transform="translate(-251 -3110)">
    <circle id="Ellipse_12" data-name="Ellipse 12" cx="220" cy="220" r="220" transform="translate(251 3110)" opacity="0.29" fill="url(#radial-gradient)"/>
    <g id="Layer_9" data-name="Layer 9" transform="translate(367 3233)">
      <path id="Path_426" data-name="Path 426" d="M12,30.065A10.065,10.065,0,1,0,22.065,20,10.065,10.065,0,0,0,12,30.065Zm13.419,0a3.355,3.355,0,1,1-3.355-3.355A3.355,3.355,0,0,1,25.419,30.065Z" transform="translate(25.903 44.742)" fill="#fff"/>
      <path id="Path_427" data-name="Path 427" d="M119.694,85.968h-.47a8.723,8.723,0,0,1-6.71-3.355,20.129,20.129,0,0,0,9.259-16.774v-6.71a20.129,20.129,0,1,0-40.258,0v6.71a20.129,20.129,0,0,0,9.293,16.774,8.723,8.723,0,0,1-6.71,3.355h-.47a15.5,15.5,0,0,0-15.533,15.5,15.5,15.5,0,0,0-15.5-15.5h-.47a8.723,8.723,0,0,1-6.71-3.355,20.129,20.129,0,0,0,9.259-16.774v-6.71a20.129,20.129,0,0,0-40.258,0v6.71a20.129,20.129,0,0,0,9.293,16.774A8.723,8.723,0,0,1,17,85.968h-.5A15.5,15.5,0,0,0,1,101.467v14.694a3.355,3.355,0,0,0,3.355,3.355H64.742a3.355,3.355,0,0,0,3.355-3.355,3.355,3.355,0,0,0,3.355,3.355h60.387a3.355,3.355,0,0,0,3.355-3.355V101.467a15.5,15.5,0,0,0-15.5-15.5ZM21.129,59.129a13.419,13.419,0,0,1,26.839,0v6.71a13.419,13.419,0,0,1-26.839,0ZM34.548,85.968a19.861,19.861,0,0,0,4.5-.537,14.9,14.9,0,0,0,3.791,4.126,13.151,13.151,0,0,1-16.573,0,14.9,14.9,0,0,0,3.791-4.126,19.859,19.859,0,0,0,4.5.537Zm26.839,26.839h-6.71V106.1h-6.71v6.71H21.129V106.1h-6.71v6.71H7.71V101.467a8.79,8.79,0,0,1,8.79-8.79h.47a16,16,0,0,0,2.55-.235l1.208,1.208a19.525,19.525,0,0,0,27.644,0l1.208-1.208a16,16,0,0,0,2.55.235h.47a8.79,8.79,0,0,1,8.79,8.79ZM88.226,59.129a13.419,13.419,0,1,1,26.839,0v6.71a13.419,13.419,0,1,1-26.839,0Zm13.419,26.839a19.861,19.861,0,0,0,4.5-.537,14.9,14.9,0,0,0,3.791,4.126,13.151,13.151,0,0,1-16.573,0,14.9,14.9,0,0,0,3.791-4.126A19.861,19.861,0,0,0,101.645,85.968Zm26.839,26.839h-6.71V106.1h-6.71v6.71H88.226V106.1h-6.71v6.71h-6.71V101.467a8.79,8.79,0,0,1,8.79-8.79h.47a16,16,0,0,0,2.55-.235l1.208,1.208a19.525,19.525,0,0,0,27.644,0l1.208-1.208a16,16,0,0,0,2.55.235h.47a8.79,8.79,0,0,1,8.79,8.79Z" transform="translate(0 89.484)" fill="#fff"/>
      <path id="Path_428" data-name="Path 428" d="M192.226,74.806h-5.166a19.693,19.693,0,0,0,3.992-6.71h1.174a10.065,10.065,0,0,0,6.71-17.512V47.968a26.839,26.839,0,1,0-53.677,0v2.617a10.065,10.065,0,0,0,6.71,17.512h1.174a19.693,19.693,0,0,0,3.992,6.71H134.321a26.839,26.839,0,0,0-12.849-16.774L120.3,54.677h1.476a10.065,10.065,0,1,0,0-20.129h-8.286l-3.355-9.9a13.419,13.419,0,0,0-13.05-10.232H59.24A13.419,13.419,0,0,0,46.257,24.484L42.9,34.548H34.548a10.065,10.065,0,1,0,0,20.129h1.476L34.85,58.032A26.839,26.839,0,0,0,21.129,81.516V91.581a3.355,3.355,0,0,0,3.355,3.355h3.355V98.29A10.065,10.065,0,0,0,37.9,108.355H51.323A10.065,10.065,0,0,0,61.387,98.29V94.935H88.226v-6.71H27.839v-6.71A20.129,20.129,0,0,1,47.968,61.387h60.387A20.129,20.129,0,0,1,127.31,74.806h-8.89a10.065,10.065,0,0,0-20.129,0,10.971,10.971,0,0,0,.3,2.348A10.065,10.065,0,0,0,105,94.935h16.774V98.29a3.355,3.355,0,0,1-3.355,3.355H105a3.355,3.355,0,0,1-3.355-3.355h-6.71A10.065,10.065,0,0,0,105,108.355h13.419A10.065,10.065,0,0,0,128.484,98.29V94.935H141.9a6.71,6.71,0,0,1,6.71,6.71v13.419H7.71V7.71H175.452V17.774h6.71V4.355A3.355,3.355,0,0,0,178.806,1H4.355A3.355,3.355,0,0,0,1,4.355V118.419a3.355,3.355,0,0,0,3.355,3.355H148.613v67.7a10.065,10.065,0,0,0-6.71,9.461v6.71A3.355,3.355,0,0,0,145.258,209h53.677a3.355,3.355,0,0,0,3.355-3.355v-6.71a10.064,10.064,0,0,0-6.71-9.461V151.968A13.419,13.419,0,0,0,209,138.548V91.581A16.774,16.774,0,0,0,192.226,74.806ZM54.677,98.29a3.355,3.355,0,0,1-3.355,3.355H37.9a3.355,3.355,0,0,1-3.355-3.355V94.935H54.677Zm67.1-57.032a3.355,3.355,0,1,1,0,6.71h-3.757l-2.248-6.71ZM59.24,21.129H97.083a6.71,6.71,0,0,1,6.71,5.4l.436,1.308H52.161l.537-1.61A6.71,6.71,0,0,1,59.24,21.129ZM34.548,47.968a3.355,3.355,0,1,1,0-6.71h6.005l-2.281,6.71Zm13.419,6.71a25.094,25.094,0,0,0-5.032.5l6.978-20.632h56.5l6.978,20.632a25.094,25.094,0,0,0-5.032-.5ZM178.806,81.516a6.71,6.71,0,1,1-13.419,0Zm13.419-20.129v-6.71a3.355,3.355,0,0,1,0,6.71Zm-43.613-3.355a3.355,3.355,0,0,1,3.355-3.355v6.71A3.355,3.355,0,0,1,148.613,58.032Zm3.355-10.065a20.129,20.129,0,0,1,40.258,0h-8.689l-5.7-5.737a3.355,3.355,0,0,0-4.764,0l-5.7,5.737Zm6.71,13.419v-6.71h10.065a3.355,3.355,0,0,0,2.382-.973l4.328-4.361,4.328,4.361a3.355,3.355,0,0,0,2.382.973h3.355v6.71a13.419,13.419,0,0,1-26.839,0ZM108.355,71.452a3.355,3.355,0,0,1,3.355,3.355H105A3.355,3.355,0,0,1,108.355,71.452Zm-6.71,13.419A3.355,3.355,0,0,1,105,81.516h3.355v6.71H105A3.355,3.355,0,0,1,101.645,84.871ZM141.9,88.226H115.065v-6.71h43.613a13.419,13.419,0,1,0,26.839,0h6.71A10.065,10.065,0,0,1,202.29,91.581v40.258h-6.71v-36.9h-6.71v36.9H155.323V101.645A13.419,13.419,0,0,0,141.9,88.226ZM168.742,202.29H148.613v-3.355a3.355,3.355,0,0,1,3.355-3.355h16.774Zm0-50.323v36.9H155.323V138.548h33.548v50.323H175.452v-36.9Zm26.839,50.323H175.452v-6.71h16.774a3.355,3.355,0,0,1,3.355,3.355Zm0-57.032v-6.71h6.71A6.71,6.71,0,0,1,195.581,145.258Z" transform="translate(0)" fill="#fff"/>
    </g>
  </g>
</svg>
