<svg xmlns="http://www.w3.org/2000/svg" xmlns:xlink="http://www.w3.org/1999/xlink" width="440" height="440" viewBox="0 0 440 440">
  <defs>
    <radialGradient id="radial-gradient" cx="0.5" cy="0.5" r="0.5" gradientUnits="objectBoundingBox">
      <stop offset="0" stop-color="#c5125a"/>
      <stop offset="0.749" stop-color="#e3194e" stop-opacity="0"/>
      <stop offset="1" stop-color="#ff2156" stop-opacity="0"/>
    </radialGradient>
  </defs>
  <g id="Group_208" data-name="Group 208" transform="translate(-239.5 -2134)">
    <circle id="Ellipse_14" data-name="Ellipse 14" cx="220" cy="220" r="220" transform="translate(239.5 2134)" opacity="0.29" fill="url(#radial-gradient)"/>
    <g id="Layer_26" data-name="Layer 26" transform="translate(353.5 2243.03)">
      <path id="Path_429" data-name="Path 429" d="M58.639,44.82a23.82,23.82,0,1,0-23.82,23.82,23.82,23.82,0,0,0,23.82-23.82ZM34.82,61.834A17.014,17.014,0,1,1,51.834,44.82,17.014,17.014,0,0,1,34.82,61.834Z" transform="translate(24.028 48.128)" fill="#fff"/>
      <path id="Path_430" data-name="Path 430" d="M23.806,25H17V35.208a3.4,3.4,0,0,0,.987,2.416l6.806,6.806L29.624,39.6l-5.819-5.785Z" transform="translate(38.445 57.74)" fill="#fff"/>
      <path id="Path_431" data-name="Path 431" d="M37.625,37H10.4A3.4,3.4,0,0,0,7,40.4V60.82a3.4,3.4,0,0,0,3.4,3.4H37.625a3.4,3.4,0,0,0,3.4-3.4V40.4A3.4,3.4,0,0,0,37.625,37Zm-3.4,20.417H13.806V43.806H34.222Z" transform="translate(14.417 86.573)" fill="#fff"/>
      <path id="Path_432" data-name="Path 432" d="M49.625,37H22.4A3.4,3.4,0,0,0,19,40.4V60.82a3.4,3.4,0,0,0,3.4,3.4H49.625a3.4,3.4,0,0,0,3.4-3.4V40.4A3.4,3.4,0,0,0,49.625,37Zm-3.4,20.417H25.806V43.806H46.222Z" transform="translate(43.251 86.573)" fill="#fff"/>
      <path id="Path_433" data-name="Path 433" d="M37.625,47H10.4A3.4,3.4,0,0,0,7,50.4V70.82a3.4,3.4,0,0,0,3.4,3.4H37.625a3.4,3.4,0,0,0,3.4-3.4V50.4A3.4,3.4,0,0,0,37.625,47Zm-3.4,20.417H13.806V53.806H34.222Z" transform="translate(14.417 110.601)" fill="#fff"/>
      <path id="Path_434" data-name="Path 434" d="M49.625,47H22.4A3.4,3.4,0,0,0,19,50.4V70.82a3.4,3.4,0,0,0,3.4,3.4H49.625a3.4,3.4,0,0,0,3.4-3.4V50.4A3.4,3.4,0,0,0,49.625,47Zm-3.4,20.417H25.806V53.806H46.222Z" transform="translate(43.251 110.601)" fill="#fff"/>
      <path id="Path_435" data-name="Path 435" d="M211.974,211.947v-6.806h-7.418a10.208,10.208,0,0,0,.612-3.4v-3.4h3.4a3.4,3.4,0,0,0,3.4-3.4v-9.6a21.982,21.982,0,0,0-5.989-15.143,17.966,17.966,0,0,0-4.39-3.4h0l-.715-2.484h.885a10.208,10.208,0,0,0,0-20.417h-7.01l-1.157-3.913a13.611,13.611,0,0,0-13.033-9.7H148.138a13.611,13.611,0,0,0-13.067,9.7l-1.157,3.913H126.9a10.208,10.208,0,0,0,0,20.417h.885l-.578,1.872A18.375,18.375,0,0,0,116.7,182.887v12.046a3.4,3.4,0,0,0,3.4,3.4h3.4v3.4a10.209,10.209,0,0,0,.613,3.4H109.89V58.82a3.4,3.4,0,0,0-.885-2.212h0L61.366,2.164a3.4,3.4,0,0,0-5.1,0L8.622,56.608h0a3.4,3.4,0,0,0-.817,2.212V205.141H1v6.806ZM201.766,150.7a3.4,3.4,0,0,1,0,6.806h-2.926L196.8,150.7ZM126.9,157.5a3.4,3.4,0,0,1,0-6.806h4.968L129.83,157.5Zm14.7-15.585a6.806,6.806,0,0,1,6.533-4.832h32.429a6.806,6.806,0,0,1,6.5,4.832l6.806,22.459h-59ZM58.848,9.548,99,55.417H18.695ZM14.611,62.223h88.473V205.141H14.611Zm119.1,142.918a3.4,3.4,0,0,1-3.4-3.4v-3.4h13.611v3.4a3.4,3.4,0,0,1-3.4,3.4Zm17.014-6.806h27.222v3.4a10.209,10.209,0,0,0,.613,3.4H150.111a10.208,10.208,0,0,0,.613-3.4Zm47.639,3.4a3.4,3.4,0,0,1-3.4,3.4h-6.806a3.4,3.4,0,0,1-3.4-3.4v-3.4h13.611Zm6.806-10.208H123.5v-8.643a11.536,11.536,0,0,1,2.28-6.806,11.74,11.74,0,0,1,9.494-4.968h57.167a11.842,11.842,0,0,1,8.575,3.709,15.279,15.279,0,0,1,4.151,10.515Z" transform="translate(0 0.1)" fill="#fff"/>
      <path id="Path_436" data-name="Path 436" d="M59.417,61.208A10.208,10.208,0,1,0,49.208,71.417,10.208,10.208,0,0,0,59.417,61.208Zm-10.208,3.4a3.4,3.4,0,1,1,3.4-3.4A3.4,3.4,0,0,1,49.208,64.611Z" transform="translate(91.307 120.213)" fill="#fff"/>
      <path id="Path_437" data-name="Path 437" d="M73.417,61.208A10.208,10.208,0,1,0,63.208,71.417,10.208,10.208,0,0,0,73.417,61.208Zm-10.208,3.4a3.4,3.4,0,1,1,3.4-3.4A3.4,3.4,0,0,1,63.208,64.611Z" transform="translate(124.946 120.213)" fill="#fff"/>
      <path id="Path_438" data-name="Path 438" d="M75.948,115.134a3.4,3.4,0,0,0,5.785,0l31.918-52.063a40.63,40.63,0,0,0,1.4-40.153A40.051,40.051,0,0,0,81.9,1.072a46.517,46.517,0,0,0-6.159,0A40.051,40.051,0,0,0,42.635,22.816a40.63,40.63,0,0,0,1.4,40.153ZM48.726,26.015A33.143,33.143,0,0,1,76.186,7.878h5.274a33.143,33.143,0,0,1,27.529,18.035,34.028,34.028,0,0,1-1.157,33.518L78.841,106.865,49.849,59.532a34.028,34.028,0,0,1-1.157-33.518Z" transform="translate(88.897 0)" fill="#fff"/>
      <path id="Path_439" data-name="Path 439" d="M69.222,59.445A27.222,27.222,0,1,0,42,32.222,27.222,27.222,0,0,0,69.222,59.445Zm0-47.639A20.417,20.417,0,1,1,48.806,32.222,20.417,20.417,0,0,1,69.222,11.806Z" transform="translate(98.515 9.683)" fill="#fff"/>
    </g>
  </g>
</svg>
