<svg xmlns="http://www.w3.org/2000/svg" xmlns:xlink="http://www.w3.org/1999/xlink" width="440" height="440" viewBox="0 0 440 440">
  <defs>
    <radialGradient id="radial-gradient" cx="0.5" cy="0.5" r="0.5" gradientUnits="objectBoundingBox">
      <stop offset="0" stop-color="#c5125a"/>
      <stop offset="0.749" stop-color="#e3194e" stop-opacity="0"/>
      <stop offset="1" stop-color="#ff2156" stop-opacity="0"/>
    </radialGradient>
  </defs>
  <g id="Group_211" data-name="Group 211" transform="translate(-1009 -3611)">
    <circle id="Ellipse_11" data-name="Ellipse 11" cx="220" cy="220" r="220" transform="translate(1009 3611)" opacity="0.29" fill="url(#radial-gradient)"/>
    <g id="Layer_27" data-name="Layer 27" transform="translate(1138 3718)">
      <path id="Path_443" data-name="Path 443" d="M192.266,88.794H117.014a3.135,3.135,0,0,0-3.135,3.135v11.319A37.908,37.908,0,0,0,95.065,98.2H85.659V91.93A31.355,31.355,0,0,0,97.667,73.117H98.2a12.542,12.542,0,0,0,9.407-20.757v-10.6a40.762,40.762,0,1,0-81.523,0v10.6a12.542,12.542,0,0,0,9.407,20.757h.627A31.355,31.355,0,0,0,48.033,91.93V98.2H38.626A37.626,37.626,0,0,0,1,135.827v56.439A3.135,3.135,0,0,0,4.136,195.4H107.607V189.13H82.053l-8.936-52.8,3.794-7.588,7.212,3.606a3.255,3.255,0,0,0,4.515-1.787l8.654-26.087a31.355,31.355,0,0,1,16.587,6.271v81.523a3.135,3.135,0,0,0,3.135,3.135h75.252a3.135,3.135,0,0,0,3.135-3.135V91.93A3.135,3.135,0,0,0,192.266,88.794ZM98.2,66.846V54.3a6.271,6.271,0,1,1,0,12.542ZM29.22,60.575A6.271,6.271,0,0,1,35.491,54.3V66.846A6.271,6.271,0,0,1,29.22,60.575Zm6.271-12.542a12.824,12.824,0,0,0-3.135.439v-6.71a34.491,34.491,0,0,1,68.981,0v6.71a12.824,12.824,0,0,0-3.135-.439A3.136,3.136,0,0,0,95.065,44.9a15.677,15.677,0,0,1-12.542-6.271L78.76,33.609a3.135,3.135,0,0,0-5.017,0l-3.763,5.017A15.678,15.678,0,0,1,57.439,44.9H38.626a3.136,3.136,0,0,0-3.136,3.136Zm6.271,18.813V51.168H57.439A21.949,21.949,0,0,0,75,42.389l1.254-1.662,1.254,1.662a22.137,22.137,0,0,0,14.423,8.56v15.9a25.084,25.084,0,0,1-50.168,0ZM66.846,98.2a31.1,31.1,0,0,0,12.542-2.634v4.641l-12.542,15.05L54.3,100.207V95.567A31.1,31.1,0,0,0,66.846,98.2ZM49.851,125.134l-6.867-20.663h6.71l12.2,14.643ZM7.271,135.827A31.355,31.355,0,0,1,36.4,104.472l8.654,25.962a3.085,3.085,0,0,0,4.39,1.913l7.212-3.606,3.919,7.588-8.936,52.8H26.084v-43.9H19.813v43.9H7.271ZM58,189.13l8.372-50.168h.941l8.372,50.168Zm10.034-56.439H65.654l-3.386-6.741,4.578-2.289,4.578,2.289Zm15.678-7.557-12.04-6.02L84,104.472h6.71Zm55.248-30.069h31.355v6.271H138.962ZM189.13,189.13H120.149V95.065h12.542v9.407a3.135,3.135,0,0,0,3.135,3.135h37.626a3.136,3.136,0,0,0,3.136-3.135V95.065H189.13Z" transform="translate(0)" fill="#fff"/>
      <path id="Path_444" data-name="Path 444" d="M56.678,37H44.135A3.135,3.135,0,0,0,41,40.135V52.678a3.135,3.135,0,0,0,3.135,3.135H56.678a3.135,3.135,0,0,0,3.135-3.135V40.135A3.135,3.135,0,0,0,56.678,37ZM53.542,49.542H47.271V43.271h6.271Z" transform="translate(85.42 76.878)" fill="#fff"/>
      <path id="Path_445" data-name="Path 445" d="M56.678,45H44.135A3.136,3.136,0,0,0,41,48.136V60.677a3.136,3.136,0,0,0,3.135,3.136H56.678a3.136,3.136,0,0,0,3.135-3.136V48.136A3.136,3.136,0,0,0,56.678,45ZM53.542,57.542H47.271V51.271h6.271Z" transform="translate(85.42 93.962)" fill="#fff"/>
      <path id="Path_446" data-name="Path 446" d="M56.678,53H44.135A3.135,3.135,0,0,0,41,56.135V68.677a3.135,3.135,0,0,0,3.135,3.135H56.678a3.135,3.135,0,0,0,3.135-3.135V56.135A3.135,3.135,0,0,0,56.678,53ZM53.542,65.542H47.271V59.271h6.271Z" transform="translate(85.42 111.046)" fill="#fff"/>
      <path id="Path_447" data-name="Path 447" d="M49,37H80.355v6.271H49Z" transform="translate(102.504 76.878)" fill="#fff"/>
      <path id="Path_448" data-name="Path 448" d="M49,41H80.355v6.271H49Z" transform="translate(102.504 85.42)" fill="#fff"/>
      <path id="Path_449" data-name="Path 449" d="M49,45H80.355v6.271H49Z" transform="translate(102.504 93.962)" fill="#fff"/>
      <path id="Path_450" data-name="Path 450" d="M49,49H80.355v6.271H49Z" transform="translate(102.504 102.504)" fill="#fff"/>
      <path id="Path_451" data-name="Path 451" d="M49,53H80.355v6.271H49Z" transform="translate(102.504 111.046)" fill="#fff"/>
      <path id="Path_452" data-name="Path 452" d="M49,57H80.355v6.271H49Z" transform="translate(102.504 119.588)" fill="#fff"/>
    </g>
  </g>
</svg>
