<svg xmlns="http://www.w3.org/2000/svg" xmlns:xlink="http://www.w3.org/1999/xlink" width="224" height="224" viewBox="0 0 224 224">
  <defs>
    <radialGradient id="radial-gradient" cx="0.5" cy="0.5" r="0.5" gradientUnits="objectBoundingBox">
      <stop offset="0" stop-color="#c5125a"/>
      <stop offset="0.749" stop-color="#e3194e" stop-opacity="0"/>
      <stop offset="1" stop-color="#ff2156" stop-opacity="0"/>
    </radialGradient>
  </defs>
  <g id="Group_209" data-name="Group 209" transform="translate(-447 -3183)">
    <circle id="Ellipse_12" data-name="Ellipse 12" cx="112" cy="112" r="112" transform="translate(447 3183)" opacity="0.29" fill="url(#radial-gradient)"/>
    <g id="Layer_9" data-name="Layer 9" transform="translate(447 3191)">
      <path id="Path_426" data-name="Path 426" d="M12,30.065A10.065,10.065,0,1,0,22.065,20,10.065,10.065,0,0,0,12,30.065Zm13.419,0a3.355,3.355,0,1,1-3.355-3.355A3.355,3.355,0,0,1,25.419,30.065Z" transform="translate(28.046 43.742)" fill="#fff"/>
      <path id="Path_427" data-name="Path 427" d="M119.694,85.968h-.47a8.723,8.723,0,0,1-6.71-3.355,20.129,20.129,0,0,0,9.259-16.774v-6.71a20.129,20.129,0,1,0-40.258,0v6.71a20.129,20.129,0,0,0,9.293,16.774,8.723,8.723,0,0,1-6.71,3.355h-.47a15.5,15.5,0,0,0-15.533,15.5,15.5,15.5,0,0,0-15.5-15.5h-.47a8.723,8.723,0,0,1-6.71-3.355,20.129,20.129,0,0,0,9.259-16.774v-6.71a20.129,20.129,0,0,0-40.258,0v6.71a20.129,20.129,0,0,0,9.293,16.774A8.723,8.723,0,0,1,17,85.968h-.5A15.5,15.5,0,0,0,1,101.467v14.694a3.355,3.355,0,0,0,3.355,3.355H64.742a3.355,3.355,0,0,0,3.355-3.355,3.355,3.355,0,0,0,3.355,3.355h60.387a3.355,3.355,0,0,0,3.355-3.355V101.467a15.5,15.5,0,0,0-15.5-15.5ZM21.129,59.129a13.419,13.419,0,0,1,26.839,0v6.71a13.419,13.419,0,0,1-26.839,0ZM34.548,85.968a19.861,19.861,0,0,0,4.5-.537,14.9,14.9,0,0,0,3.791,4.126,13.151,13.151,0,0,1-16.573,0,14.9,14.9,0,0,0,3.791-4.126,19.859,19.859,0,0,0,4.5.537Zm26.839,26.839h-6.71V106.1h-6.71v6.71H21.129V106.1h-6.71v6.71H7.71V101.467a8.79,8.79,0,0,1,8.79-8.79h.47a16,16,0,0,0,2.55-.235l1.208,1.208a19.525,19.525,0,0,0,27.644,0l1.208-1.208a16,16,0,0,0,2.55.235h.47a8.79,8.79,0,0,1,8.79,8.79ZM88.226,59.129a13.419,13.419,0,1,1,26.839,0v6.71a13.419,13.419,0,1,1-26.839,0Zm13.419,26.839a19.861,19.861,0,0,0,4.5-.537,14.9,14.9,0,0,0,3.791,4.126,13.151,13.151,0,0,1-16.573,0,14.9,14.9,0,0,0,3.791-4.126A19.861,19.861,0,0,0,101.645,85.968Zm26.839,26.839h-6.71V106.1h-6.71v6.71H88.226V106.1h-6.71v6.71h-6.71V101.467a8.79,8.79,0,0,1,8.79-8.79h.47a16,16,0,0,0,2.55-.235l1.208,1.208a19.525,19.525,0,0,0,27.644,0l1.208-1.208a16,16,0,0,0,2.55.235h.47a8.79,8.79,0,0,1,8.79,8.79Z" transform="translate(-1 88.484)" fill="#fff"/>
      <path id="Path_428" data-name="Path 428" d="M206.935,74.806h-5.564a19.457,19.457,0,0,0,4.3-6.71h1.265a10.844,10.844,0,0,0,10.057-6.463,9.581,9.581,0,0,0-2.831-11.049V47.968c0-14.823-12.94-26.839-28.9-26.839s-28.9,12.016-28.9,26.839v2.617a9.581,9.581,0,0,0-2.831,11.049A10.844,10.844,0,0,0,163.581,68.1h1.265a19.456,19.456,0,0,0,4.3,6.71H144.577a27.194,27.194,0,0,0-13.837-16.774l-1.265-3.355h1.59c5.986,0,10.839-4.506,10.839-10.065s-4.853-10.065-10.839-10.065h-8.924l-3.613-9.9c-1.583-6.012-7.389-10.239-14.054-10.232H63.72c-6.586,0-12.335,4.143-13.982,10.065L46.125,34.548h-9c-5.986,0-10.839,4.506-10.839,10.065s4.853,10.065,10.839,10.065h1.59l-1.265,3.355c-9.149,4.759-14.8,13.746-14.777,23.484V91.581a3.491,3.491,0,0,0,3.613,3.355H29.9V98.29c0,5.558,4.853,10.065,10.839,10.065H55.194c5.986,0,10.839-4.506,10.839-10.065V94.935h28.9v-6.71H29.9v-6.71c0-11.117,9.705-20.129,21.677-20.129h65.032c9.177.01,17.354,5.385,20.413,13.419h-9.574c0-5.558-4.853-10.065-10.839-10.065s-10.839,4.506-10.839,10.065a10.231,10.231,0,0,0,.325,2.348,9.613,9.613,0,0,0-3.238,11.128A10.823,10.823,0,0,0,113,94.935h18.064V98.29a3.491,3.491,0,0,1-3.613,3.355H113a3.491,3.491,0,0,1-3.613-3.355h-7.226c0,5.558,4.853,10.065,10.839,10.065h14.452c5.986,0,10.839-4.506,10.839-10.065V94.935h14.452a6.982,6.982,0,0,1,7.226,6.71v13.419H8.226V7.71H188.871V17.774H196.1V4.355A3.491,3.491,0,0,0,192.484,1H4.613A3.491,3.491,0,0,0,1,4.355V118.419a3.491,3.491,0,0,0,3.613,3.355H159.968v67.7a10.143,10.143,0,0,0-7.226,9.461v6.71A3.491,3.491,0,0,0,156.355,209h57.806a3.491,3.491,0,0,0,3.613-3.355v-6.71a10.143,10.143,0,0,0-7.226-9.461V151.968c7.981,0,14.452-6.008,14.452-13.419V91.581C225,82.317,216.912,74.806,206.935,74.806ZM58.806,98.29a3.491,3.491,0,0,1-3.613,3.355H40.742a3.491,3.491,0,0,1-3.613-3.355V94.935H58.806Zm72.258-57.032a3.364,3.364,0,1,1,0,6.71h-4.046l-2.421-6.71ZM63.72,21.129h40.754a7.125,7.125,0,0,1,7.226,5.4l.47,1.308H56.1l.578-1.61A7.148,7.148,0,0,1,63.72,21.129ZM37.129,47.968a3.364,3.364,0,1,1,0-6.71H43.6l-2.457,6.71Zm14.452,6.71a29.033,29.033,0,0,0-5.419.5l7.515-20.632h60.841l7.515,20.632a29.033,29.033,0,0,0-5.419-.5Zm140.9,26.839a7.246,7.246,0,0,1-14.452,0Zm14.452-20.129v-6.71a3.364,3.364,0,1,1,0,6.71Zm-46.968-3.355a3.491,3.491,0,0,1,3.613-3.355v6.71A3.491,3.491,0,0,1,159.968,58.032Zm3.613-10.065c0-11.117,9.705-20.129,21.677-20.129s21.677,9.012,21.677,20.129h-9.357l-6.142-5.737a3.812,3.812,0,0,0-5.13,0l-6.142,5.737Zm7.226,13.419v-6.71h10.839a3.761,3.761,0,0,0,2.565-.973l4.661-4.361,4.661,4.361a3.761,3.761,0,0,0,2.565.973h3.613v6.71c0,7.411-6.47,13.419-14.452,13.419S170.806,68.8,170.806,61.387ZM116.613,71.452a3.491,3.491,0,0,1,3.613,3.355H113A3.491,3.491,0,0,1,116.613,71.452Zm-7.226,13.419A3.491,3.491,0,0,1,113,81.516h3.613v6.71H113A3.491,3.491,0,0,1,109.387,84.871Zm43.355,3.355h-28.9v-6.71h46.968c0,7.411,6.47,13.419,14.452,13.419s14.452-6.008,14.452-13.419h7.226c5.986,0,10.839,4.506,10.839,10.065v40.258h-7.226v-36.9h-7.226v36.9H167.194V101.645C167.194,94.234,160.723,88.226,152.742,88.226Zm28.9,114.064H159.968v-3.355a3.491,3.491,0,0,1,3.613-3.355h18.065Zm0-50.323v36.9H167.194V138.548h36.129v50.323H188.871v-36.9Zm28.9,50.323H188.871v-6.71h18.065a3.491,3.491,0,0,1,3.613,3.355Zm0-57.032v-6.71h7.226A6.982,6.982,0,0,1,210.548,145.258Z" transform="translate(-1 -1)" fill="#fff"/>
    </g>
  </g>
</svg>
