<svg xmlns="http://www.w3.org/2000/svg" xmlns:xlink="http://www.w3.org/1999/xlink" width="224" height="224" viewBox="0 0 224 224">
  <defs>
    <radialGradient id="radial-gradient" cx="0.5" cy="0.5" r="0.5" gradientUnits="objectBoundingBox">
      <stop offset="0" stop-color="#c5125a"/>
      <stop offset="0.749" stop-color="#e3194e" stop-opacity="0"/>
      <stop offset="1" stop-color="#ff2156" stop-opacity="0"/>
    </radialGradient>
  </defs>
  <g id="Group_208" data-name="Group 208" transform="translate(-1161 -2735)">
    <circle id="Ellipse_17" data-name="Ellipse 17" cx="112" cy="112" r="112" transform="translate(1161 2735)" opacity="0.29" fill="url(#radial-gradient)"/>
    <g id="Layer_6" data-name="Layer 6" transform="translate(1178.657 2770.896)">
      <path id="Path_440" data-name="Path 440" d="M186.931,122.826h-3.048V99.691a31.669,31.669,0,0,0-11.4-24.384,32.127,32.127,0,0,0-6.889-4.3l-.579-3.048h6.675a9.144,9.144,0,0,0,9.144-9.144v-6.1a9.144,9.144,0,0,0-9.144-9.144H160.077L156.724,26.66A24.384,24.384,0,0,0,132.8,7H58.181A24.386,24.386,0,0,0,34.253,26.665L30.9,43.576H19.288a9.144,9.144,0,0,0-9.144,9.144v6.1a9.144,9.144,0,0,0,9.144,9.144h6.828l-.579,3.048a32.126,32.126,0,0,0-7.041,4.42A31.669,31.669,0,0,0,7.1,99.813v23.013H4.048A3.048,3.048,0,0,0,1,125.874v12.192a3.048,3.048,0,0,0,3.048,3.048h15.24v9.144a9.144,9.144,0,0,0,9.144,9.144H52.817a9.144,9.144,0,0,0,9.144-9.144v-9.144h67.057v9.144a9.144,9.144,0,0,0,9.144,9.144h24.384a9.144,9.144,0,0,0,9.144-9.144v-9.144h15.24a3.048,3.048,0,0,0,3.048-3.048V125.874A3.048,3.048,0,0,0,186.931,122.826ZM171.69,49.673a3.048,3.048,0,0,1,3.048,3.048v6.1a3.048,3.048,0,0,1-3.048,3.048h-8.016l-2.408-12.192ZM132.8,13.1a18.288,18.288,0,0,1,13.594,6.1H44.587a18.288,18.288,0,0,1,13.594-6.1ZM19.288,61.865a3.048,3.048,0,0,1-3.048-3.048v-6.1a3.048,3.048,0,0,1,3.048-3.048H29.713L27.3,61.865Zm20.94-34.016a22.586,22.586,0,0,1,.732-2.56H150.019a22.592,22.592,0,0,1,.732,2.56L158.8,68.692a32.157,32.157,0,0,0-6.645-.732H38.826a32.156,32.156,0,0,0-6.645.732ZM13.192,99.691A25.6,25.6,0,0,1,38.826,74.057H152.152a25.6,25.6,0,0,1,25.634,25.634v23.135H122.922V95.393a9.144,9.144,0,0,0-9.144-9.144H77.2a9.144,9.144,0,0,0-9.144,9.144v27.432H13.192Zm103.633-1.25H74.153V95.393A3.048,3.048,0,0,1,77.2,92.345h36.576a3.048,3.048,0,0,1,3.048,3.048Zm-42.673,6.1h42.673v6.1H74.153Zm0,12.192h42.673v6.1H74.153ZM55.865,150.258a3.048,3.048,0,0,1-3.048,3.048H28.432a3.048,3.048,0,0,1-3.048-3.048v-9.144h30.48Zm109.729,0a3.048,3.048,0,0,1-3.048,3.048H138.162a3.048,3.048,0,0,1-3.048-3.048v-9.144h30.48Zm18.288-15.24H7.1v-6.1H183.882Z" transform="translate(-1 -7)" fill="#fff"/>
      <path id="Path_441" data-name="Path 441" d="M28.336,34C16.388,34,7,40.1,7,47.716s9.388,13.716,21.336,13.716,21.336-6.1,21.336-13.716S40.285,34,28.336,34Zm0,21.336c-8.992,0-15.24-4.023-15.24-7.62s6.248-7.62,15.24-7.62,15.24,4.023,15.24,7.62S37.48,55.336,28.336,55.336Z" transform="translate(11.288 48.297)" fill="#fff"/>
      <path id="Path_442" data-name="Path 442" d="M64.336,61.432c11.948,0,21.336-6.1,21.336-13.716S76.285,34,64.336,34,43,40.1,43,47.716,52.388,61.432,64.336,61.432Zm0-21.336c9.144,0,15.24,4.023,15.24,7.62s-6.1,7.62-15.24,7.62S49.1,51.313,49.1,47.716,55.345,40.1,64.336,40.1Z" transform="translate(85.018 48.297)" fill="#fff"/>
      <rect id="Rectangle_169" data-name="Rectangle 169" width="25.878" height="6.096" transform="translate(58.811 49.652) rotate(-45)" fill="#fff"/>
      <rect id="Rectangle_170" data-name="Rectangle 170" width="25.878" height="6.096" transform="translate(83.186 49.661) rotate(-45)" fill="#fff"/>
      <rect id="Rectangle_171" data-name="Rectangle 171" width="25.878" height="6.096" transform="translate(107.591 49.671) rotate(-45)" fill="#fff"/>
    </g>
  </g>
</svg>
