<svg xmlns="http://www.w3.org/2000/svg" xmlns:xlink="http://www.w3.org/1999/xlink" width="224" height="224" viewBox="0 0 224 224">
  <defs>
    <radialGradient id="radial-gradient" cx="0.5" cy="0.5" r="0.5" gradientUnits="objectBoundingBox">
      <stop offset="0" stop-color="#c5125a"/>
      <stop offset="0.749" stop-color="#e3194e" stop-opacity="0"/>
      <stop offset="1" stop-color="#ff2156" stop-opacity="0"/>
    </radialGradient>
  </defs>
  <g id="Group_208" data-name="Group 208" transform="translate(-1160.657 -2734)">
    <ellipse id="Ellipse_17" data-name="Ellipse 17" cx="111.828" cy="112" rx="111.828" ry="112" transform="translate(1161 2734)" opacity="0.29" fill="url(#radial-gradient)"/>
    <g id="Layer_6" data-name="Layer 6" transform="translate(1160.657 2749.505)">
      <path id="Path_440" data-name="Path 440" d="M221.387,153.932h-3.613V124.584a41.362,41.362,0,0,0-13.512-30.933A37.787,37.787,0,0,0,196.1,88.2l-.686-3.867h7.912c5.986,0,10.839-5.193,10.839-11.6V65c0-6.406-4.853-11.6-10.839-11.6H189.557l-3.974-21.46C182.908,17.444,171.028,7,157.222,7H68.778C54.966,7,43.088,17.45,40.416,31.946L36.443,53.4H22.677c-5.986,0-10.839,5.193-10.839,11.6v7.733c0,6.406,4.853,11.6,10.839,11.6H30.77L30.084,88.2a37.806,37.806,0,0,0-8.346,5.607A41.362,41.362,0,0,0,8.226,124.739v29.193H4.613A3.746,3.746,0,0,0,1,157.8v15.467a3.746,3.746,0,0,0,3.613,3.867H22.677v11.6c0,6.406,4.853,11.6,10.839,11.6h28.9c5.986,0,10.839-5.193,10.839-11.6v-11.6h79.484v11.6c0,6.406,4.853,11.6,10.839,11.6h28.9c5.986,0,10.839-5.193,10.839-11.6v-11.6h18.065A3.746,3.746,0,0,0,225,173.265V157.8A3.746,3.746,0,0,0,221.387,153.932Zm-18.065-92.8A3.746,3.746,0,0,1,206.936,65v7.733a3.746,3.746,0,0,1-3.613,3.867h-9.5l-2.854-15.466Zm-46.1-46.4a21.08,21.08,0,0,1,16.114,7.733H52.665a21.08,21.08,0,0,1,16.114-7.733ZM22.677,76.6a3.746,3.746,0,0,1-3.613-3.867V65a3.746,3.746,0,0,1,3.613-3.867H35.034L32.179,76.6ZM47.5,33.448a30.221,30.221,0,0,1,.867-3.248h129.27a30.232,30.232,0,0,1,.867,3.248L188.04,85.26a35.722,35.722,0,0,0-7.876-.928H45.836a35.721,35.721,0,0,0-7.876.928ZM15.452,124.584a33.675,33.675,0,0,1,8.889-23.005,29.372,29.372,0,0,1,21.5-9.513H180.164a29.372,29.372,0,0,1,21.5,9.513,33.675,33.675,0,0,1,8.889,23.005v29.348H145.516v-34.8c0-6.406-4.853-11.6-10.839-11.6H91.323c-5.986,0-10.839,5.193-10.839,11.6v34.8H15.452ZM138.29,123H87.71v-3.867a3.746,3.746,0,0,1,3.613-3.867h43.355a3.746,3.746,0,0,1,3.613,3.867ZM87.71,130.732H138.29v7.733H87.71Zm0,15.466H138.29v7.733H87.71ZM66.032,188.731a3.746,3.746,0,0,1-3.613,3.867h-28.9a3.746,3.746,0,0,1-3.613-3.867v-11.6H66.032Zm130.065,0a3.746,3.746,0,0,1-3.613,3.867h-28.9a3.746,3.746,0,0,1-3.613-3.867v-11.6H196.1ZM217.774,169.4H8.226v-7.733H217.774Z" transform="translate(-1 -7)" fill="#fff"/>
      <path id="Path_441" data-name="Path 441" d="M32.329,34C18.145,34,7,41.08,7,49.93S18.145,65.86,32.329,65.86s25.329-7.08,25.329-15.93S46.513,34,32.329,34Zm0,24.78c-10.674,0-18.092-4.673-18.092-8.85s7.418-8.85,18.092-8.85,18.092,4.673,18.092,8.85S43.184,58.78,32.329,58.78Z" transform="translate(14.711 72.335)" fill="#fff"/>
      <path id="Path_442" data-name="Path 442" d="M68.329,65.86c14.184,0,25.329-7.08,25.329-15.93S82.513,34,68.329,34,43,41.08,43,49.93,54.145,65.86,68.329,65.86Zm0-24.78c10.855,0,18.092,4.673,18.092,8.85s-7.237,8.85-18.092,8.85-18.092-4.673-18.092-8.85S57.655,41.08,68.329,41.08Z" transform="translate(108.631 72.335)" fill="#fff"/>
      <path id="Path_476" data-name="Path 476" d="M0,0,30.387.333l.078,7.158L.078,7.158Z" transform="translate(69.695 61.61) rotate(-45)" fill="#fff"/>
      <path id="Path_477" data-name="Path 477" d="M0,0,30.387.333l.078,7.158L.078,7.158Z" transform="translate(98.581 61.623) rotate(-45)" fill="#fff"/>
      <path id="Path_478" data-name="Path 478" d="M0,0,30.387.333l.078,7.158L.078,7.158Z" transform="translate(127.503 61.635) rotate(-45)" fill="#fff"/>
    </g>
  </g>
</svg>
