<svg xmlns="http://www.w3.org/2000/svg" xmlns:xlink="http://www.w3.org/1999/xlink" width="224" height="224" viewBox="0 0 224 224">
  <defs>
    <radialGradient id="radial-gradient" cx="0.5" cy="0.5" r="0.5" gradientUnits="objectBoundingBox">
      <stop offset="0" stop-color="#c5125a"/>
      <stop offset="0.749" stop-color="#e3194e" stop-opacity="0"/>
      <stop offset="1" stop-color="#ff2156" stop-opacity="0"/>
    </radialGradient>
  </defs>
  <g id="Group_210" data-name="Group 210" transform="translate(-1124 -3705)">
    <ellipse id="Ellipse_19" data-name="Ellipse 19" cx="111.299" cy="112" rx="111.299" ry="112" transform="translate(1124 3705)" opacity="0.29" fill="url(#radial-gradient)"/>
    <g id="Layer_27" data-name="Layer 27" transform="translate(1139 3719)">
      <path id="Path_443" data-name="Path 443" d="M206.629,88.794h-80.9a3.26,3.26,0,0,0-3.371,3.135v11.319A43.135,43.135,0,0,0,102.129,98.2H92.016V91.93a31.216,31.216,0,0,0,12.911-18.813h.573a13.567,13.567,0,0,0,12.206-7.365,11.859,11.859,0,0,0-2.093-13.392v-10.6C115.613,19.25,95.993,1,71.79,1S27.968,19.25,27.968,41.762v10.6a11.859,11.859,0,0,0-2.093,13.392,13.567,13.567,0,0,0,12.206,7.365h.674A31.194,31.194,0,0,0,51.565,91.93V98.2H41.452C19.111,98.2,1,115.046,1,135.827v56.439A3.26,3.26,0,0,0,4.371,195.4H115.613V189.13H88.139l-9.607-52.8,4.079-7.588,7.753,3.606a3.582,3.582,0,0,0,1.652.345,3.362,3.362,0,0,0,3.2-2.132l9.3-26.087a35.251,35.251,0,0,1,17.832,6.271v81.523a3.26,3.26,0,0,0,3.371,3.135h80.9A3.26,3.26,0,0,0,210,192.266V91.93A3.26,3.26,0,0,0,206.629,88.794ZM105.5,66.846V54.3a6.287,6.287,0,1,1,0,12.542ZM31.339,60.575A6.519,6.519,0,0,1,38.081,54.3V66.846A6.519,6.519,0,0,1,31.339,60.575Zm6.742-12.542a14.758,14.758,0,0,0-3.371.439v-6.71c0-19.049,16.6-34.491,37.081-34.491s37.081,15.442,37.081,34.491v6.71a14.757,14.757,0,0,0-3.371-.439,3.26,3.26,0,0,0-3.371-3.135,17.311,17.311,0,0,1-13.484-6.271L84.6,33.609a3.526,3.526,0,0,0-5.394,0l-4.045,5.017A17.311,17.311,0,0,1,61.677,44.9H41.452a3.26,3.26,0,0,0-3.371,3.136Zm6.742,18.813V51.168H61.677a24.235,24.235,0,0,0,18.877-8.779L81.9,40.727l1.348,1.662a24.183,24.183,0,0,0,15.506,8.56v15.9C98.758,80.7,86.684,91.93,71.79,91.93S44.823,80.7,44.823,66.846ZM71.79,98.2a35.6,35.6,0,0,0,13.484-2.634v4.641L71.79,115.258l-13.484-15.05V95.567A35.6,35.6,0,0,0,71.79,98.2ZM53.52,125.134l-7.382-20.663h7.214l13.113,14.643ZM7.742,135.827c-.045-16.483,13.64-30.185,31.316-31.355l9.3,25.962a3.345,3.345,0,0,0,3.2,2.258,3.577,3.577,0,0,0,1.517-.345l7.753-3.606,4.214,7.588-9.607,52.8H27.968v-43.9H21.226v43.9H7.742Zm54.542,53.3,9-50.168H72.3l9,50.168Zm10.787-56.439H70.509l-3.641-6.741,4.922-2.289,4.922,2.289Zm16.855-7.557-12.945-6.02,13.248-14.643h7.214Zm59.4-30.069h33.71v6.271h-33.71Zm53.935,94.065H129.1V95.065h13.484v9.407a3.26,3.26,0,0,0,3.371,3.135H186.4a3.26,3.26,0,0,0,3.371-3.135V95.065h13.484Z" transform="translate(-1 -1)" fill="#fff"/>
      <path id="Path_444" data-name="Path 444" d="M56.678,37H44.135A3.135,3.135,0,0,0,41,40.135V52.678a3.135,3.135,0,0,0,3.135,3.135H56.678a3.135,3.135,0,0,0,3.135-3.135V40.135A3.135,3.135,0,0,0,56.678,37ZM53.542,49.542H47.271V43.271h6.271Z" transform="translate(94.848 75.878)" fill="#fff"/>
      <path id="Path_445" data-name="Path 445" d="M56.678,45H44.135A3.136,3.136,0,0,0,41,48.136V60.677a3.136,3.136,0,0,0,3.135,3.136H56.678a3.136,3.136,0,0,0,3.135-3.136V48.136A3.136,3.136,0,0,0,56.678,45ZM53.542,57.542H47.271V51.271h6.271Z" transform="translate(94.848 92.962)" fill="#fff"/>
      <path id="Path_446" data-name="Path 446" d="M56.678,53H44.135A3.135,3.135,0,0,0,41,56.135V68.677a3.135,3.135,0,0,0,3.135,3.135H56.678a3.135,3.135,0,0,0,3.135-3.135V56.135A3.135,3.135,0,0,0,56.678,53ZM53.542,65.542H47.271V59.271h6.271Z" transform="translate(94.848 110.046)" fill="#fff"/>
      <path id="Path_447" data-name="Path 447" d="M49,37H80.355v6.271H49Z" transform="translate(116.103 75.878)" fill="#fff"/>
      <path id="Path_448" data-name="Path 448" d="M49,41H80.355v6.271H49Z" transform="translate(116.103 84.42)" fill="#fff"/>
      <path id="Path_449" data-name="Path 449" d="M49,45H80.355v6.271H49Z" transform="translate(116.103 92.962)" fill="#fff"/>
      <path id="Path_450" data-name="Path 450" d="M49,49H80.355v6.271H49Z" transform="translate(116.103 101.504)" fill="#fff"/>
      <path id="Path_451" data-name="Path 451" d="M49,53H80.355v6.271H49Z" transform="translate(116.103 110.046)" fill="#fff"/>
      <path id="Path_452" data-name="Path 452" d="M49,57H80.355v6.271H49Z" transform="translate(116.103 118.588)" fill="#fff"/>
    </g>
  </g>
</svg>
