<svg xmlns="http://www.w3.org/2000/svg" width="210.974" height="224" viewBox="0 0 210.974 224">
  <g id="Layer_26" data-name="Layer 26" transform="translate(-1 -0.97)">
    <path id="Path_429" data-name="Path 429" d="M58.639,44.82a23.82,23.82,0,1,0-23.82,23.82,23.82,23.82,0,0,0,23.82-23.82ZM34.82,61.834A17.014,17.014,0,1,1,51.834,44.82,17.014,17.014,0,0,1,34.82,61.834Z" transform="translate(24.028 53.518)" fill="#fff"/>
    <path id="Path_430" data-name="Path 430" d="M23.806,25H17V35.208a3.4,3.4,0,0,0,.987,2.416l6.806,6.806L29.624,39.6l-5.819-5.785Z" transform="translate(38.445 63.254)" fill="#fff"/>
    <path id="Path_431" data-name="Path 431" d="M37.625,37H10.4A3.4,3.4,0,0,0,7,40.4V60.82a3.4,3.4,0,0,0,3.4,3.4H37.625a3.4,3.4,0,0,0,3.4-3.4V40.4A3.4,3.4,0,0,0,37.625,37Zm-3.4,20.417H13.806V43.806H34.222Z" transform="translate(14.417 95.191)" fill="#fff"/>
    <path id="Path_432" data-name="Path 432" d="M49.625,37H22.4A3.4,3.4,0,0,0,19,40.4V60.82a3.4,3.4,0,0,0,3.4,3.4H49.625a3.4,3.4,0,0,0,3.4-3.4V40.4A3.4,3.4,0,0,0,49.625,37Zm-3.4,20.417H25.806V43.806H46.222Z" transform="translate(43.251 95.191)" fill="#fff"/>
    <path id="Path_433" data-name="Path 433" d="M37.625,47H10.4A3.4,3.4,0,0,0,7,50.4V70.82a3.4,3.4,0,0,0,3.4,3.4H37.625a3.4,3.4,0,0,0,3.4-3.4V50.4A3.4,3.4,0,0,0,37.625,47Zm-3.4,20.417H13.806V53.806H34.222Z" transform="translate(14.417 123.525)" fill="#fff"/>
    <path id="Path_434" data-name="Path 434" d="M49.625,47H22.4A3.4,3.4,0,0,0,19,50.4V70.82a3.4,3.4,0,0,0,3.4,3.4H49.625a3.4,3.4,0,0,0,3.4-3.4V50.4A3.4,3.4,0,0,0,49.625,47Zm-3.4,20.417H25.806V53.806H46.222Z" transform="translate(43.251 123.525)" fill="#fff"/>
    <path id="Path_435" data-name="Path 435" d="M211.974,224.87v-7.223h-7.418a11.428,11.428,0,0,0,.612-3.611v-3.611h3.4a3.512,3.512,0,0,0,3.4-3.611V196.63a24.123,24.123,0,0,0-5.989-16.07,18.15,18.15,0,0,0-4.39-3.611h0l-.715-2.636h.885c5.638,0,10.208-4.851,10.208-10.834s-4.57-10.834-10.208-10.834h-7.01l-1.157-4.153A13.74,13.74,0,0,0,180.566,138.2H148.138a13.737,13.737,0,0,0-13.067,10.292l-1.157,4.153H126.9c-5.638,0-10.208,4.851-10.208,10.834s4.57,10.834,10.208,10.834h.885l-.578,1.986A19.631,19.631,0,0,0,116.7,194.03v12.784a3.512,3.512,0,0,0,3.4,3.611h3.4v3.611a11.429,11.429,0,0,0,.613,3.611H109.89V62.362a3.734,3.734,0,0,0-.885-2.347h0L61.366,2.234a3.275,3.275,0,0,0-5.1,0L8.622,60.015h0a3.745,3.745,0,0,0-.817,2.347V217.648H1v7.223Zm-10.208-65a3.618,3.618,0,0,1,0,7.223h-2.926l-2.042-7.223ZM126.9,167.09a3.618,3.618,0,0,1,0-7.223h4.968l-2.042,7.223Zm14.7-16.54a6.867,6.867,0,0,1,6.533-5.128h32.429a6.869,6.869,0,0,1,6.5,5.128l6.806,23.835h-59ZM58.848,10.071,99,58.751H18.695Zm-44.237,55.9h88.473V217.648H14.611Zm119.1,151.674a3.512,3.512,0,0,1-3.4-3.611v-3.611h13.611v3.611a3.512,3.512,0,0,1-3.4,3.611Zm17.014-7.223h27.222v3.611a11.429,11.429,0,0,0,.613,3.611H150.111a11.427,11.427,0,0,0,.613-3.611Zm47.639,3.611a3.512,3.512,0,0,1-3.4,3.611h-6.806a3.512,3.512,0,0,1-3.4-3.611v-3.611h13.611Zm6.806-10.834H123.5V194.03a12.743,12.743,0,0,1,2.28-7.223,11.557,11.557,0,0,1,9.494-5.272h57.167a11.531,11.531,0,0,1,8.575,3.936,16.768,16.768,0,0,1,4.151,11.159Z" transform="translate(0 0.1)" fill="#fff"/>
    <path id="Path_436" data-name="Path 436" d="M59.417,61.208A10.208,10.208,0,1,0,49.208,71.417,10.208,10.208,0,0,0,59.417,61.208Zm-10.208,3.4a3.4,3.4,0,1,1,3.4-3.4A3.4,3.4,0,0,1,49.208,64.611Z" transform="translate(91.307 133.136)" fill="#fff"/>
    <path id="Path_437" data-name="Path 437" d="M73.417,61.208A10.208,10.208,0,1,0,63.208,71.417,10.208,10.208,0,0,0,73.417,61.208Zm-10.208,3.4a3.4,3.4,0,1,1,3.4-3.4A3.4,3.4,0,0,1,63.208,64.611Z" transform="translate(124.946 133.136)" fill="#fff"/>
    <path id="Path_438" data-name="Path 438" d="M75.948,115.134a3.4,3.4,0,0,0,5.785,0l31.918-52.063a40.63,40.63,0,0,0,1.4-40.153A40.051,40.051,0,0,0,81.9,1.072a46.517,46.517,0,0,0-6.159,0A40.051,40.051,0,0,0,42.635,22.816a40.63,40.63,0,0,0,1.4,40.153ZM48.726,26.015A33.143,33.143,0,0,1,76.186,7.878h5.274a33.143,33.143,0,0,1,27.529,18.035,34.028,34.028,0,0,1-1.157,33.518L78.841,106.865,49.849,59.532a34.028,34.028,0,0,1-1.157-33.518Z" transform="translate(88.897 0)" fill="#fff"/>
    <path id="Path_439" data-name="Path 439" d="M69.222,59.445A27.222,27.222,0,1,0,42,32.222,27.222,27.222,0,0,0,69.222,59.445Zm0-47.639A20.417,20.417,0,1,1,48.806,32.222,20.417,20.417,0,0,1,69.222,11.806Z" transform="translate(98.515 9.683)" fill="#fff"/>
  </g>
</svg>
