<?xml version="1.0" encoding="utf-8"?>
<!-- Generator: Adobe Illustrator 21.0.0, SVG Export Plug-In . SVG Version: 6.00 Build 0)  -->
<svg version="1.1" id="Warstwa_1" xmlns="http://www.w3.org/2000/svg" xmlns:xlink="http://www.w3.org/1999/xlink" x="0px" y="0px"
	 viewBox="0 0 360 6039" style="enable-background:new 0 0 360 6039;" xml:space="preserve">
<style type="text/css">
	.st0{clip-path:url(#SVGID_2_);}
	.st1{fill:url(#SVGID_3_);}
	.st2{fill:url(#SVGID_4_);}
	.st3{opacity:9.000000e-02;fill:url(#SVGID_5_);enable-background:new    ;}
	.st4{fill:url(#SVGID_6_);}
	.st5{opacity:0.69;fill:url(#SVGID_7_);enable-background:new    ;}
	.st6{fill:url(#SVGID_8_);}
	.st7{fill:url(#SVGID_9_);}
</style>
<g>
	<defs>
		<rect id="SVGID_1_" width="360" height="6039"/>
	</defs>
	<clipPath id="SVGID_2_">
		<use xlink:href="#SVGID_1_"  style="overflow:visible;"/>
	</clipPath>
	<g id="n" class="st0">
		
			<radialGradient id="SVGID_3_" cx="-119.0402" cy="3319.6958" r="0.358" gradientTransform="matrix(1207.08 -163.053 -84.24 -15375.2939 423288.1563 51024780)" gradientUnits="userSpaceOnUse">
			<stop  offset="0" style="stop-color:#210133"/>
			<stop  offset="1" style="stop-color:#0F0E19"/>
		</radialGradient>
		<rect class="st1" width="360" height="6039"/>
		<g transform="translate(-5922.253 -1137.328)">
			<g transform="translate(6046.275 1211.413)">
				
					<linearGradient id="SVGID_4_" gradientUnits="userSpaceOnUse" x1="-242.8248" y1="3267.5488" x2="-240.1218" y2="3269.1519" gradientTransform="matrix(131.5785 0 0 -118.4318 31857.4805 387139.4375)">
					<stop  offset="0" style="stop-color:#B30023"/>
					<stop  offset="0.138" style="stop-color:#B30023"/>
					<stop  offset="0.266" style="stop-color:#9B052F"/>
					<stop  offset="0.563" style="stop-color:#5E144F"/>
					<stop  offset="0.615" style="stop-color:#581653"/>
					<stop  offset="0.683" style="stop-color:#521655"/>
					<stop  offset="0.83" style="stop-color:#44175C"/>
					<stop  offset="1" style="stop-color:#2A1969"/>
				</linearGradient>
				<path class="st2" d="M129.6,110.1c5.3-22.8-5.9-44.2-23-50.4c-19.6-7-41.9,7.6-43.5,15.4c-0.8,4.4-1.4,8.9-1.7,13.4
					c-0.1,1.6-0.1,2.2-0.2,2.6c-2.7,27.8-39.7,37.5-55.7,14.7C-11.3,81.9,13.3,49.1,41,59.2c0,0,0-0.1,0-0.1
					c5,1.3,10.2,1.2,15.2-0.2c13.3-4,22.5-18.3,22.2-32.4c-0.3-13.9-9.8-22.8-12-24.8c12.8-3.1,21.7-1.3,27.3,0.9
					C121.4,13,137.4,56.3,129.6,110.1z"/>
			</g>
			
				<radialGradient id="SVGID_5_" cx="5803.9258" cy="4461.123" r="0.405" gradientTransform="matrix(629.314 0 0 -636.2365 -3646420.25 2839611.75)" gradientUnits="userSpaceOnUse">
				<stop  offset="0" style="stop-color:#FF00FF"/>
				<stop  offset="1" style="stop-color:#FF2156;stop-opacity:0"/>
			</radialGradient>
			<ellipse class="st3" cx="6082" cy="1294.7" rx="314.7" ry="314.7"/>
			<g transform="matrix(1, 0, 0, 1, 5922.25, 1137.33)">
				
					<linearGradient id="SVGID_6_" gradientUnits="userSpaceOnUse" x1="-116.498" y1="3326.0908" x2="-119.435" y2="3326.24" gradientTransform="matrix(450.67 0 0 -407.134 53190.2617 1354292.5)">
					<stop  offset="0" style="stop-color:#C00033"/>
					<stop  offset="7.700000e-02" style="stop-color:#B60027"/>
					<stop  offset="0.156" style="stop-color:#B30023"/>
					<stop  offset="0.291" style="stop-color:#A3022A"/>
					<stop  offset="0.555" style="stop-color:#7A0A3F"/>
					<stop  offset="0.917" style="stop-color:#391660"/>
					<stop  offset="1" style="stop-color:#2A1969"/>
				</linearGradient>
				<path class="st4" d="M131.5,243.1v52.5c-17.7-1.6-35.2-5-52.3-10c-18.1-5.3-35.6-12.5-52.3-21.4
					C8.2,254.2-303.2-28.4-319.1-42.3v-69.2C-304.7-91.5,6.9,188.7,27,203c2.2,1.6,4.5,3.1,6.8,4.6c14.2,9.4,29.5,17.1,45.5,23
					C96.1,236.9,113.7,241.1,131.5,243.1z"/>
			</g>
			
				<linearGradient id="SVGID_7_" gradientUnits="userSpaceOnUse" x1="5804.8711" y1="4486.0674" x2="5805.8711" y2="4486.0674" gradientTransform="matrix(73.549 0 0 -93.026 -421003.3438 418700.3438)">
				<stop  offset="0" style="stop-color:#361147;stop-opacity:0.102"/>
				<stop  offset="1.000000e-03" style="stop-color:#351046;stop-opacity:0.102"/>
				<stop  offset="0.153" style="stop-color:#2D0730;stop-opacity:0.604"/>
				<stop  offset="0.313" style="stop-color:#270122;stop-opacity:0.902"/>
				<stop  offset="0.493" style="stop-color:#26001E"/>
				<stop  offset="0.654" style="stop-color:#2C0421;stop-opacity:0.816"/>
				<stop  offset="0.888" style="stop-color:#3F0F2B;stop-opacity:0.306"/>
				<stop  offset="1" style="stop-color:#4B1732;stop-opacity:0"/>
			</linearGradient>
			<path class="st5" d="M6012.6,1371.8v54.2c-3.8-0.9-7.5-1.9-11.1-3c-18.1-5.3-35.6-12.5-52.3-21.4c-3.4-1.8-6.8-3.9-10.2-6v-62.6
				c3.3,2.5,6.7,4.9,10.2,7.4c2.2,1.6,4.5,3.1,6.8,4.6c14.2,9.4,29.5,17.1,45.5,23C6005.2,1369.3,6008.9,1370.6,6012.6,1371.8z"/>
			<g transform="matrix(1, 0, 0, 1, 5922.25, 1137.33)">
				
					<linearGradient id="SVGID_8_" gradientUnits="userSpaceOnUse" x1="-116.2347" y1="3319.6157" x2="-116.2347" y2="3321.4827" gradientTransform="matrix(52.6 0 0 -4991.4839 6167.1528 16574594)">
					<stop  offset="2.873563e-03" style="stop-color:#2C0721"/>
					<stop  offset="0.3405" style="stop-color:#820822"/>
					<stop  offset="0.4267" style="stop-color:#AB0823"/>
					<stop  offset="0.5819" style="stop-color:#6D175D"/>
					<stop  offset="0.7529" style="stop-color:#482080"/>
					<stop  offset="0.9971" style="stop-color:#002029"/>
				</linearGradient>
				<path class="st6" d="M26.9,157.5h52.6V6039H28L26.9,157.5z"/>
			</g>
			<g transform="translate(5949.448 1171.782)">
				<g transform="matrix(1, 0, 0, 1, -27.2, -34.45)">
					
						<linearGradient id="SVGID_9_" gradientUnits="userSpaceOnUse" x1="-118.5082" y1="3329.8315" x2="-117.0062" y2="3330.0674" gradientTransform="matrix(258.1 0 0 -261.3127 30620.8848 870311.6875)">
						<stop  offset="0" style="stop-color:#B30023"/>
						<stop  offset="1" style="stop-color:#482080"/>
					</linearGradient>
					<path class="st7" d="M285.3,165.1c0,69.4-54.2,126.7-123.6,130.5h-0.1c-2.3,0.1-4.6,0.2-7,0.2c-2,0-4,0-6.1-0.2v-52.2
						c1,0,2,0,3,0.1c1,0,2,0.1,3.1,0.1c1,0,2.1,0,3.2-0.1c43.3-1.7,76.9-38.2,75.2-81.5S194.8,85,151.5,86.8
						c-31,1.2-58.4,20.7-69.8,49.5H27.2C43.1,65.9,113,21.8,183.4,37.7C243,51.1,285.3,104.1,285.3,165.1L285.3,165.1z"/>
				</g>
			</g>
		</g>
	</g>
</g>
</svg>
