<svg xmlns="http://www.w3.org/2000/svg" xmlns:xlink="http://www.w3.org/1999/xlink" width="2021.45" height="11904.284" viewBox="0 0 2021.45 11904.284">
  <defs>
    <radialGradient id="radial-gradient" cx="0.484" cy="0.48" r="0.405" gradientTransform="translate(0 -0.005) scale(1 1.011)" gradientUnits="objectBoundingBox">
      <stop offset="0" stop-color="#f0f"/>
      <stop offset="1" stop-color="#ff2156" stop-opacity="0"/>
    </radialGradient>
    <linearGradient id="linear-gradient" x1="-0.798" y1="1.18" x2="1.905" y2="-0.423" gradientUnits="objectBoundingBox">
      <stop offset="0" stop-color="#b30023"/>
      <stop offset="0.138" stop-color="#b30023"/>
      <stop offset="0.266" stop-color="#9b052f"/>
      <stop offset="0.563" stop-color="#5e144f"/>
      <stop offset="0.615" stop-color="#581653"/>
      <stop offset="0.683" stop-color="#521655"/>
      <stop offset="0.83" stop-color="#44175c"/>
      <stop offset="1" stop-color="#2a1969"/>
    </linearGradient>
    <linearGradient id="linear-gradient-2" x1="0.014" y1="0.497" x2="1.516" y2="0.261" gradientUnits="objectBoundingBox">
      <stop offset="0" stop-color="#b30023"/>
      <stop offset="1" stop-color="#482080"/>
    </linearGradient>
    <filter id="Path_5" x="1140.59" y="30.299" width="604.378" height="611.299" filterUnits="userSpaceOnUse">
      <feOffset dy="3" input="SourceAlpha"/>
      <feGaussianBlur stdDeviation="7.5" result="blur"/>
      <feFlood flood-color="#1a1818" flood-opacity="0.078"/>
      <feComposite operator="in" in2="blur"/>
      <feComposite in="SourceGraphic"/>
    </filter>
    <linearGradient id="linear-gradient-3" x1="2.235" y1="0.588" x2="-0.702" y2="0.439" gradientUnits="objectBoundingBox">
      <stop offset="0" stop-color="#c00033"/>
      <stop offset="0.077" stop-color="#b60027"/>
      <stop offset="0.156" stop-color="#b30023"/>
      <stop offset="0.291" stop-color="#a3022a"/>
      <stop offset="0.555" stop-color="#7a0a3f"/>
      <stop offset="0.917" stop-color="#391660"/>
      <stop offset="1" stop-color="#2a1969"/>
    </linearGradient>
    <filter id="Path_2" x="515.46" y="0" width="875.743" height="639.608" filterUnits="userSpaceOnUse">
      <feOffset dy="2.835" input="SourceAlpha"/>
      <feGaussianBlur stdDeviation="5.669" result="blur-2"/>
      <feFlood flood-color="#1a1818" flood-opacity="0.078"/>
      <feComposite operator="in" in2="blur-2"/>
      <feComposite in="SourceGraphic"/>
    </filter>
    <linearGradient id="linear-gradient-4" y1="-398.588" x2="1" y2="-398.588" gradientUnits="objectBoundingBox">
      <stop offset="0" stop-color="#361147" stop-opacity="0.102"/>
      <stop offset="0.001" stop-color="#351046" stop-opacity="0.102"/>
      <stop offset="0.153" stop-color="#2d0730" stop-opacity="0.604"/>
      <stop offset="0.313" stop-color="#270122" stop-opacity="0.902"/>
      <stop offset="0.493" stop-color="#26001e"/>
      <stop offset="0.654" stop-color="#2c0421" stop-opacity="0.816"/>
      <stop offset="0.888" stop-color="#3f0f2b" stop-opacity="0.306"/>
      <stop offset="1" stop-color="#4b1732" stop-opacity="0"/>
    </linearGradient>
    <linearGradient id="linear-gradient-5" x1="0.266" y1="1.029" x2="1.47" y2="-1.693" gradientUnits="objectBoundingBox">
      <stop offset="0" stop-color="#cd002f"/>
      <stop offset="0.325" stop-color="#ae0721"/>
      <stop offset="0.841" stop-color="#511e77"/>
      <stop offset="1" stop-color="#482080"/>
    </linearGradient>
    <filter id="Rectangle_1" x="1138.968" y="287.885" width="159" height="761.126" filterUnits="userSpaceOnUse">
      <feOffset dy="3" input="SourceAlpha"/>
      <feGaussianBlur stdDeviation="7.5" result="blur-3"/>
      <feFlood flood-color="#1a1818" flood-opacity="0.078"/>
      <feComposite operator="in" in2="blur-3"/>
      <feComposite in="SourceGraphic"/>
    </filter>
    <linearGradient id="linear-gradient-6" x1="0.5" x2="-0.247" y2="1.197" gradientUnits="objectBoundingBox">
      <stop offset="0" stop-color="#cb002e"/>
      <stop offset="0.087" stop-color="#b30023"/>
      <stop offset="0.096" stop-color="#9b052f"/>
      <stop offset="0.258" stop-color="#7a0a3f"/>
      <stop offset="0.301" stop-color="#7a0a3f"/>
      <stop offset="0.716" stop-color="#311433"/>
      <stop offset="0.83" stop-color="#271530"/>
      <stop offset="0.958" stop-color="#5e144f"/>
      <stop offset="0.989" stop-color="#2b1868"/>
      <stop offset="1" stop-color="#2a1969"/>
    </linearGradient>
    <linearGradient id="linear-gradient-7" x1="2.037" y1="0.353" x2="-1.817" y2="-0.339" gradientUnits="objectBoundingBox">
      <stop offset="0" stop-color="#b30023"/>
      <stop offset="0.138" stop-color="#b30023"/>
      <stop offset="0.266" stop-color="#9b052f"/>
      <stop offset="0.534" stop-color="#5e144f"/>
      <stop offset="0.562" stop-color="#581653"/>
      <stop offset="0.683" stop-color="#521655"/>
      <stop offset="0.83" stop-color="#44175c"/>
      <stop offset="0.955" stop-color="#2b1868"/>
      <stop offset="1" stop-color="#2a1969"/>
    </linearGradient>
    <filter id="Path_27" x="0" y="4937.363" width="2021.45" height="1595.664" filterUnits="userSpaceOnUse">
      <feOffset dy="2.835" input="SourceAlpha"/>
      <feGaussianBlur stdDeviation="5.669" result="blur-4"/>
      <feFlood flood-color="#1a1818" flood-opacity="0.078"/>
      <feComposite operator="in" in2="blur-4"/>
      <feComposite in="SourceGraphic"/>
    </filter>
    <linearGradient id="linear-gradient-8" x1="0.5" x2="-0.247" y2="1.197" gradientUnits="objectBoundingBox">
      <stop offset="0" stop-color="#b30023"/>
      <stop offset="0" stop-color="#7a0a3f"/>
      <stop offset="0.155" stop-color="#7a0a3f"/>
      <stop offset="0.477" stop-color="#311433"/>
      <stop offset="0.83" stop-color="#271530"/>
      <stop offset="0.958" stop-color="#5e144f"/>
      <stop offset="0.989" stop-color="#2b1868"/>
      <stop offset="1" stop-color="#2a1969"/>
    </linearGradient>
  </defs>
  <g id="Group_208" data-name="Group 208" transform="translate(48.468 15.507)">
    <g id="Group_122" data-name="Group 122" transform="translate(-65 -131)">
      <path id="Path_477" data-name="Path 477" d="M1054,2108C471.892,2108,0,1636.108,0,1054S1636.108,2108,1054,2108Z" transform="translate(456 -349)" opacity="0.09" fill="url(#radial-gradient)"/>
      <g id="Group_121" data-name="Group 121" transform="translate(414 -147.118)">
        <g id="Group_1" data-name="Group 1" transform="translate(960.473 402.3)">
          <path id="Path_4" data-name="Path 4" d="M471.347,382.593c11.46-49.345-12.77-95.778-49.949-109.152-42.453-15.267-90.7,16.562-94.352,33.3a242.491,242.491,0,0,0-3.692,29.039c-.247,3.481-.267,4.851-.332,5.541-5.768,60.225-86.066,81.281-120.757,31.931-36.414-51.8,16.86-122.843,77.054-101.006a.342.342,0,0,0,.025-.227,62.732,62.732,0,0,0,32.9-.428c28.8-8.629,48.866-39.633,48.1-70.3-.75-30.077-21.267-49.476-25.9-53.651,27.715-6.745,47.053-2.76,59.2,1.849C453.369,172.143,488.05,266.163,471.347,382.593Z" transform="translate(-190.362 -144.046)" fill="url(#linear-gradient)"/>
        </g>
        <g id="Group_2" data-name="Group 2" transform="translate(765.622 312.41)">
          <g transform="matrix(1, 0, 0, 1, -1163.09, -49.8)" filter="url(#Path_5)">
            <path id="Path_5-2" data-name="Path 5" d="M708.08,410.147a281.649,281.649,0,0,1-14.386,89.224C657.909,607.384,558.787,686.544,440.281,692.876h-.206c-4.992.292-10.07.418-15.147.418-4.443,0-8.765-.081-13.127-.332V579.786c2.136.081,4.317.081,6.5.126,2.227.081,4.408.126,6.629.126,2.267,0,4.574-.046,6.841-.126A169.9,169.9,0,1,0,266.911,347.766H148.7C177.1,221.377,289.981,126.995,424.928,126.995,581.313,126.995,708.08,253.762,708.08,410.147Z" transform="translate(1014.39 -77.2)" fill="url(#linear-gradient-2)"/>
          </g>
        </g>
        <g transform="matrix(1, 0, 0, 1, -397.47, 262.61)" filter="url(#Path_2)">
          <path id="Path_2-2" data-name="Path 2" d="M465.919,369.819v113.72a597.163,597.163,0,0,1-113.262-21.645A594.852,594.852,0,0,1,239.4,415.582c-30.537-16.272-615.2-537.635-615.2-537.635h156S213.525,264.393,239.4,282.776q7.238,5.161,14.683,10.069a484.451,484.451,0,0,0,98.578,49.914A484.246,484.246,0,0,0,465.919,369.819Z" transform="translate(908.28 136.23)" fill="url(#linear-gradient-3)"/>
        </g>
        <path id="Path_3" data-name="Path 3" d="M303.65,280.483V397.936c-8.135-2.055-16.149-4.2-24.118-6.543A594.861,594.861,0,0,1,166.27,345.08c-7.425-3.939-14.764-8.346-22.023-13.087V196.331c7.173,5.329,14.517,10.614,22.023,15.943q7.239,5.161,14.683,10.069a484.45,484.45,0,0,0,98.579,49.914C287.461,275.194,295.515,277.964,303.65,280.483Z" transform="translate(573.934 300.55)" opacity="0.69" fill="url(#linear-gradient-4)"/>
        <g transform="matrix(1, 0, 0, 1, -397.47, 262.61)" filter="url(#Rectangle_1)">
          <rect id="Rectangle_1-2" data-name="Rectangle 1" width="114" height="716.125" transform="translate(1161.47 307.38)" fill="url(#linear-gradient-5)"/>
        </g>
      </g>
    </g>
    <path id="Path_425" data-name="Path 425" d="M1112.5-134l-4,994c0,48,24.624,86.9,55,86.9h494V3512.5s-14,69.6,26,100,134,21.593,134,21.593h102v-97.535h-151V912.568c0-48-15-71.181-55-86.9h-486L1226.5-136Z" transform="translate(0.5 1133.5)" fill="url(#linear-gradient-6)"/>
    <g transform="matrix(1, 0, 0, 1, -48.47, -15.51)" filter="url(#Path_27)">
      <path id="Path_27-2" data-name="Path 27" d="M1881.308,671.594l-40,69.282s-486-72.9-939.293-239.244S32.373,102.528.618,85.377l35.75-61.921c28.9,24.608,431.382,238.988,892.076,406.329S1881.308,671.594,1881.308,671.594Z" transform="translate(4.74 5871.88) rotate(-30)" fill="url(#linear-gradient-7)"/>
    </g>
    <path id="Path_476" data-name="Path 476" d="M1105.5-115.5l3,975.5c0,48,24.624,86.9,55,86.9h494V3512.5s-14,69.6,26,100,134,21.593,134,21.593h106v-97.535h-155V912.568c0-48-15-71.181-55-86.9h-486l-3-941.165Z" transform="translate(1923.5 11773.277) rotate(180)" fill="url(#linear-gradient-8)"/>
  </g>
</svg>
